<svg width="18" height="16" viewBox="0 0 18 16" fill="none" xmlns="http://www.w3.org/2000/svg">
<path d="M16.0791 7.2925L14.3241 6.3565C13.8868 6.12305 13.3863 5.99981 12.8762 6H4.37681L4.0275 4.7575C3.96684 4.54108 3.82645 4.34892 3.62869 4.21164C3.43093 4.07436 3.18717 3.99986 2.93625 4H2.25C1.95172 4.00026 1.66575 4.10571 1.45483 4.29319C1.24392 4.48066 1.1253 4.73487 1.125 5V8.5C1.12545 8.8977 1.30338 9.279 1.61975 9.56022C1.93612 9.84144 2.36508 9.9996 2.8125 10H6.75V13C6.7503 13.2651 6.86892 13.5193 7.07983 13.7068C7.29075 13.8943 7.57672 13.9997 7.875 14H8.61019C8.83908 13.9994 9.06237 13.937 9.2505 13.8211C9.43864 13.7052 9.58274 13.5413 9.66375 13.351L11.0773 10H15.2353C15.594 10.0001 15.9428 9.89566 16.2283 9.70268C16.5138 9.50971 16.7203 9.23884 16.816 8.93159C16.9118 8.62434 16.8915 8.29765 16.7584 8.0016C16.6253 7.70555 16.3867 7.45646 16.0791 7.2925ZM15.2353 9H10.2977L8.61019 13H7.875V9H2.8125C2.66332 9 2.52024 8.94732 2.41475 8.85355C2.30926 8.75979 2.25 8.63261 2.25 8.5V5H2.93625L3.49875 7H5.625V8H6.75V7H8.4375V8H9.5625V7H11.25V8H12.375V7H12.8767C13.1825 7.00007 13.4826 7.07404 13.7447 7.214L15.4997 8.15C15.5963 8.20142 15.6712 8.27957 15.7131 8.37249C15.7549 8.4654 15.7613 8.56795 15.7313 8.66441C15.7013 8.76087 15.6366 8.84593 15.547 8.90654C15.4574 8.96716 15.3479 8.99999 15.2353 9Z" fill="white"/>
<path d="M7.875 2.00001H8.61919L9.96919 5.00001H11.1808L9.66375 1.62851C9.58087 1.44256 9.43688 1.28314 9.25054 1.17102C9.06421 1.05891 8.84419 0.999311 8.61919 1.00001H7.875C7.57672 1.00027 7.29075 1.10571 7.07983 1.29319C6.86892 1.48067 6.7503 1.73487 6.75 2.00001V5.00001H7.875V2.00001Z" fill="white"/>
</svg>
