<svg width="18" height="18" viewBox="0 0 18 18" fill="none" xmlns="http://www.w3.org/2000/svg">
<path d="M5.1525 15.4702L5.79975 14.0107C5.58625 13.8637 5.38125 13.71 5.18475 13.5495C4.98875 13.3895 4.80125 13.2105 4.62225 13.0125C4.54175 13.05 4.457 13.0782 4.368 13.0972C4.279 13.1157 4.19275 13.125 4.10925 13.125C3.75425 13.125 3.44925 12.9975 3.19425 12.7425C2.93925 12.4875 2.81175 12.1825 2.81175 11.8275C2.81175 11.625 2.8575 11.4327 2.949 11.2507C3.0405 11.0687 3.1655 10.9185 3.324 10.8C3.224 10.5125 3.1505 10.222 3.1035 9.9285C3.0565 9.6345 3.033 9.325 3.033 9C3.033 8.675 3.0565 8.36575 3.1035 8.07225C3.151 7.77825 3.22475 7.4875 3.32475 7.2C3.16575 7.0815 3.0405 6.9315 2.949 6.75C2.857 6.5675 2.811 6.375 2.811 6.1725C2.811 5.818 2.9385 5.513 3.1935 5.2575C3.4485 5.002 3.7535 4.8745 4.1085 4.875C4.1925 4.875 4.279 4.8845 4.368 4.9035C4.457 4.922 4.542 4.95 4.623 4.9875C5.035 4.5375 5.502 4.16 6.024 3.855C6.5455 3.55 7.10625 3.3275 7.70625 3.1875C7.74975 2.87 7.8975 2.60075 8.1495 2.37975C8.402 2.15875 8.687 2.04825 9.0045 2.04825C9.3215 2.04825 9.6065 2.15475 9.8595 2.36775C10.1115 2.58075 10.259 2.8445 10.302 3.159C10.9215 3.299 11.492 3.52075 12.0135 3.82425C12.5355 4.12775 13.0028 4.503 13.4153 4.95C13.4958 4.9125 13.575 4.88925 13.653 4.88025C13.731 4.87075 13.8103 4.866 13.8908 4.866C14.2458 4.866 14.5508 4.99375 14.8058 5.24925C15.0608 5.50425 15.1883 5.80925 15.1883 6.16425C15.1883 6.36625 15.1433 6.557 15.0533 6.7365C14.9633 6.9155 14.8403 7.06425 14.6843 7.18275C14.7843 7.47275 14.8578 7.767 14.9048 8.0655C14.9518 8.3635 14.9753 8.675 14.9753 9C14.9753 9.325 14.9518 9.64075 14.9048 9.94725C14.8578 10.2537 14.7843 10.5505 14.6843 10.8375C14.8303 10.956 14.946 11.1 15.0315 11.2695C15.117 11.4395 15.1598 11.6252 15.1598 11.8267C15.1598 12.1817 15.0323 12.4867 14.7773 12.7417C14.5223 12.9972 14.2173 13.125 13.8623 13.125C13.7813 13.125 13.7018 13.118 13.6238 13.104C13.5463 13.09 13.467 13.069 13.386 13.041C13.207 13.2395 13.025 13.4202 12.84 13.5832C12.655 13.7462 12.4448 13.9012 12.2093 14.0482L12.834 15.4747C12.8855 15.5907 12.877 15.6992 12.8085 15.8002C12.7395 15.9012 12.6408 15.9517 12.5123 15.9517C12.4423 15.9517 12.3788 15.9335 12.3218 15.897C12.2648 15.8605 12.221 15.81 12.1905 15.7455L11.6033 14.388C11.3898 14.492 11.1778 14.5795 10.9673 14.6505C10.7568 14.7215 10.5353 14.785 10.3028 14.841C10.2593 15.156 10.1113 15.4197 9.85876 15.6322C9.60626 15.8452 9.32125 15.9517 9.00375 15.9517C8.68675 15.9517 8.402 15.8412 8.1495 15.6202C7.8975 15.3992 7.74975 15.13 7.70625 14.8125C7.47075 14.756 7.247 14.6922 7.035 14.6212C6.823 14.5507 6.61025 14.4635 6.39675 14.3595L5.781 15.75C5.75 15.8145 5.7055 15.8642 5.6475 15.8992C5.589 15.9342 5.52625 15.9517 5.45925 15.9517C5.33025 15.9517 5.23375 15.9005 5.16975 15.798C5.10575 15.696 5.1005 15.5867 5.1525 15.4702ZM6.039 13.4107L7.51875 10.122C7.39175 9.9645 7.295 9.7915 7.2285 9.603C7.1625 9.4145 7.1295 9.2135 7.1295 9C7.1295 8.4895 7.3145 8.0495 7.6845 7.68C8.054 7.31 8.494 7.125 9.0045 7.125C9.5145 7.125 9.9545 7.31 10.3245 7.68C10.6945 8.0495 10.8795 8.4895 10.8795 9C10.8795 9.2135 10.8408 9.4185 10.7633 9.615C10.6858 9.811 10.5823 9.9925 10.4528 10.1595L11.9325 13.4392C12.1025 13.3297 12.2648 13.2102 12.4193 13.0807C12.5733 12.9517 12.7195 12.8067 12.858 12.6457C12.757 12.5362 12.6828 12.4125 12.6353 12.2745C12.5878 12.1365 12.564 11.9872 12.564 11.8267C12.564 11.4267 12.723 11.095 13.041 10.8315C13.3595 10.568 13.7045 10.4767 14.076 10.5577C14.151 10.3077 14.212 10.056 14.259 9.8025C14.306 9.549 14.3295 9.2815 14.3295 9C14.3295 8.7185 14.306 8.4495 14.259 8.193C14.2115 7.937 14.1503 7.684 14.0753 7.434C13.7043 7.5145 13.3643 7.423 13.0553 7.1595C12.7468 6.896 12.5925 6.56425 12.5925 6.16425C12.5925 6.02325 12.62 5.885 12.675 5.7495C12.731 5.6145 12.8018 5.492 12.8873 5.382C12.5248 4.991 12.1173 4.66825 11.6648 4.41375C11.2133 4.15875 10.7293 3.9625 10.2128 3.825C10.1233 4.0665 9.97 4.2635 9.753 4.416C9.5355 4.568 9.286 4.644 9.0045 4.644C8.7225 4.644 8.473 4.568 8.256 4.416C8.0385 4.2635 7.885 4.0665 7.7955 3.825C7.2735 3.9625 6.7865 4.1595 6.3345 4.416C5.8825 4.6725 5.47525 4.9975 5.11275 5.391C5.19825 5.501 5.26875 5.6235 5.32425 5.7585C5.37925 5.8935 5.40675 6.03175 5.40675 6.17325C5.40675 6.58275 5.24925 6.91375 4.93425 7.16625C4.61925 7.41875 4.276 7.51075 3.9045 7.44225C3.8295 7.69225 3.77325 7.944 3.73575 8.1975C3.69825 8.451 3.6795 8.7185 3.6795 9C3.6795 9.2815 3.69825 9.549 3.73575 9.8025C3.77325 10.056 3.8295 10.3077 3.9045 10.5577C4.2565 10.4767 4.595 10.5657 4.92 10.8247C5.245 11.0832 5.4075 11.4172 5.4075 11.8267C5.4075 11.9872 5.3835 12.1302 5.3355 12.2557C5.288 12.3812 5.21375 12.4987 5.11275 12.6082C5.25125 12.7692 5.39775 12.911 5.55225 13.0335C5.70675 13.156 5.869 13.2817 6.039 13.4107ZM6.645 13.7595C6.821 13.851 7.00475 13.929 7.19625 13.9935C7.38825 14.058 7.58825 14.1185 7.79626 14.175C7.88525 13.9335 8.0385 13.7367 8.256 13.5847C8.473 13.4322 8.7225 13.356 9.0045 13.356C9.286 13.356 9.5355 13.4322 9.753 13.5847C9.97 13.7367 10.1233 13.9335 10.2128 14.175C10.4108 14.1185 10.602 14.0627 10.7865 14.0077C10.9705 13.9527 11.1505 13.8797 11.3265 13.7887L9.92175 10.6297C9.78175 10.7017 9.63751 10.7607 9.48901 10.8067C9.341 10.8522 9.1795 10.875 9.0045 10.875C8.8265 10.875 8.658 10.8515 8.499 10.8045C8.34 10.7575 8.19 10.6867 8.049 10.5922L6.645 13.7595Z" fill="white"/>
</svg>
