<svg width="123" height="22" viewBox="0 0 123 22" fill="none" xmlns="http://www.w3.org/2000/svg">
<g clip-path="url(#clip0_20_59)">
<mask id="mask0_20_59" style="mask-type:luminance" maskUnits="userSpaceOnUse" x="0" y="-1" width="123" height="23">
<path d="M0.28479 -0.158535H122.742V21.755H0.28479V-0.158535Z" fill="white"/>
</mask>
<g mask="url(#mask0_20_59)">
<mask id="mask1_20_59" style="mask-type:luminance" maskUnits="userSpaceOnUse" x="0" y="-1" width="123" height="23">
<path d="M0.28479 21.7549H122.742V-0.158596H0.28479V21.7549Z" fill="white"/>
</mask>
<g mask="url(#mask1_20_59)">
<path d="M48.3061 2.23987C48.3061 1.7194 48.5021 1.22024 48.8511 0.852215C49.2001 0.484185 49.6734 0.277428 50.167 0.277428C50.6605 0.277428 51.1338 0.484185 51.4827 0.852215C51.8317 1.22024 52.0278 1.7194 52.0278 2.23987C52.0098 2.74767 51.8059 3.22835 51.4588 3.58091C51.1118 3.93346 50.6488 4.13043 50.167 4.13043C49.6851 4.13043 49.222 3.93346 48.875 3.58091C48.528 3.22835 48.3241 2.74767 48.3061 2.23987Z" fill="white"/>
<path d="M77.666 15.3278C77.666 14.2386 78.4979 13.3586 79.5229 13.3586C80.0178 13.3586 80.4924 13.5659 80.8424 13.9349C81.1923 14.304 81.3889 14.8045 81.3889 15.3265C81.3889 15.8484 81.1923 16.3489 80.8424 16.718C80.4924 17.087 80.0178 17.2944 79.5229 17.2944C78.4992 17.2944 77.666 16.4129 77.666 15.3265" fill="white"/>
<path d="M17.7671 14.4764C16.1654 14.4764 15.051 13.1344 15.051 11.2157C15.051 9.29837 16.1654 7.95773 17.7683 7.95773C19.379 7.95773 20.5051 9.29837 20.5051 11.2157C20.5051 13.1645 19.4037 14.4764 17.7671 14.4764ZM17.7671 5.09196C14.3771 5.09196 11.9163 7.66801 11.9163 11.2157C11.9163 14.7648 14.3784 17.3395 17.7671 17.3395C21.1712 17.3395 23.641 14.7648 23.641 11.2171C23.641 7.66801 21.1699 5.09196 17.7671 5.09196ZM44.7023 11.5232C44.5843 11.2826 44.4352 11.0604 44.2592 10.8631L44.1555 10.7497L44.2644 10.6404C44.4199 10.4668 44.5792 10.2618 44.7321 10.024L47.7255 5.33385H44.092L41.8437 9.00319C41.7167 9.19998 41.4602 9.29837 41.0753 9.29837H40.5634V2.36148C40.5634 0.974379 39.7432 0.785788 38.8581 0.785788H37.3419L37.3458 17.1591H40.5647V12.2475H40.8667C41.2334 12.2475 41.4821 12.2926 41.5975 12.5031L43.3728 16.0371C43.8691 16.9965 44.3628 17.1591 45.2932 17.1591H47.7592L45.9217 13.9558L44.7037 11.5232M60.3276 5.06463C58.6897 5.06463 57.6452 5.83266 57.0594 6.4818L56.8651 6.68952L56.7951 6.40664C56.6241 5.71103 56.0435 5.32975 55.1714 5.32975H53.7291L53.7382 17.155H56.935V11.705C56.935 11.172 56.9998 10.7101 57.1346 10.2878C57.4896 9.01002 58.4823 8.21602 59.7224 8.21602C60.7202 8.21602 61.1103 8.77223 61.1103 10.2072V15.3579C61.1103 16.5824 61.648 17.155 62.8104 17.155H64.3317L64.3265 9.63319C64.3265 6.64579 62.9439 5.06463 60.3276 5.06463ZM50.2057 5.33385H48.6909L48.7013 14.4778V17.1591H50.3172L50.3742 17.1618L51.1284 17.1591H51.8774V17.155H51.8826L51.8891 7.13094C51.8891 5.92149 51.341 5.33522 50.2071 5.33522M30.3224 14.4764C28.7207 14.4764 27.605 13.1344 27.605 11.2157C27.605 9.29837 28.7208 7.95773 30.3237 7.95773C31.9306 7.95773 33.0606 9.29837 33.0606 11.2157C33.0606 13.1645 31.9591 14.4764 30.3237 14.4764H30.3224ZM30.3224 5.09196C26.9299 5.09196 24.4678 7.66801 24.4678 11.2157C24.4678 14.7648 26.9299 17.3395 30.3237 17.3395C33.7227 17.3395 36.1977 14.7648 36.1977 11.2171C36.1977 7.66801 33.7227 5.09196 30.3237 5.09196" fill="white"/>
</g>
</g>
<mask id="mask2_20_59" style="mask-type:luminance" maskUnits="userSpaceOnUse" x="0" y="-1" width="123" height="23">
<path d="M0.28479 -0.158535H122.742V21.755H0.28479V-0.158535Z" fill="white"/>
</mask>
<g mask="url(#mask2_20_59)">
<mask id="mask3_20_59" style="mask-type:luminance" maskUnits="userSpaceOnUse" x="0" y="0" width="123" height="22">
<path d="M0.28479 0.273329H122.716V21.7263H0.28479V0.273329Z" fill="white"/>
</mask>
<g mask="url(#mask3_20_59)">
<mask id="mask4_20_59" style="mask-type:luminance" maskUnits="userSpaceOnUse" x="0" y="-1" width="123" height="23">
<path d="M0.28479 21.755H122.742V-0.158535H0.28479V21.755Z" fill="white"/>
</mask>
<g mask="url(#mask4_20_59)">
<path d="M98.84 14.4764C97.2383 14.4764 96.1213 13.1344 96.1213 11.2157C96.1213 9.29837 97.2383 7.95773 98.84 7.95773C100.449 7.95773 101.578 9.29837 101.578 11.2157C101.578 13.1645 100.477 14.4764 98.84 14.4764ZM98.84 5.09196C95.4475 5.09196 92.9867 7.66801 92.9867 11.2157C92.9867 14.7648 95.4475 17.3395 98.84 17.3395C102.24 17.3395 104.714 14.7648 104.714 11.2171C104.714 7.66801 102.239 5.09196 98.84 5.09196Z" fill="white"/>
<path d="M71.0662 13.9558C69.3181 13.9558 68.6961 12.3486 68.6961 10.8413C68.6961 10.1771 68.8555 8.01375 70.899 8.01375C71.9136 8.01375 73.2652 8.31988 73.2652 10.952C73.2652 13.4351 72.0692 13.9558 71.0662 13.9558ZM74.9252 5.30241C74.3187 5.30241 73.8522 5.55797 73.6177 6.02398L73.5296 6.20437L73.3818 6.06771C72.8661 5.5976 71.9409 5.03866 70.439 5.03866C67.4495 5.03866 65.4371 7.40698 65.4371 10.9287C65.4371 14.4491 67.5195 16.909 70.4986 16.909C71.5159 16.909 72.3205 16.6575 72.9581 16.1492L73.2043 15.9537V16.2817C73.2043 17.8615 72.2363 18.7334 70.4804 18.7334C69.6265 18.7334 68.8503 18.5147 68.3294 18.3152C67.653 18.0993 67.2538 18.2783 66.9804 18.9958L66.7264 19.6572L66.3674 20.6248L66.589 20.7491C67.7138 21.3778 69.1769 21.7536 70.4986 21.7536C73.2199 21.7536 76.3998 20.2845 76.3998 16.1492L76.4115 5.30241H74.9252Z" fill="white"/>
</g>
</g>
</g>
<mask id="mask5_20_59" style="mask-type:luminance" maskUnits="userSpaceOnUse" x="0" y="-1" width="123" height="23">
<path d="M0.28479 -0.158535H122.742V21.755H0.28479V-0.158535Z" fill="white"/>
</mask>
<g mask="url(#mask5_20_59)">
<mask id="mask6_20_59" style="mask-type:luminance" maskUnits="userSpaceOnUse" x="0" y="-1" width="123" height="23">
<path d="M0.28479 21.7549H122.742V-0.158596H0.28479V21.7549Z" fill="white"/>
</mask>
<g mask="url(#mask6_20_59)">
<path d="M5.86337 14.3411L3.26133 14.3384V11.0586C3.26133 10.3561 3.5192 9.9926 4.08808 9.90787H5.86337C7.12941 9.90787 7.94836 10.7497 7.94965 12.1122C7.94836 13.5116 7.15014 14.3398 5.86337 14.3398V14.3411ZM3.26133 5.491V4.62731C3.26133 3.87158 3.56457 3.51216 4.22933 3.4657H5.56148C6.70311 3.4657 7.38731 4.1859 7.38731 5.39261C7.38731 6.31097 6.9182 7.38375 5.60292 7.38375H3.26133V5.491ZM9.18594 8.76539L8.7155 8.4866L9.1263 8.11625C9.60447 7.68304 10.404 6.70865 10.404 5.02772C10.404 2.45304 8.51209 0.791248 5.5822 0.791248H1.85793C1.43887 0.807362 1.04178 0.992893 0.748901 1.30939C0.456026 1.6259 0.289837 2.0491 0.28479 2.4913V17.1003H5.64824C8.90469 17.1003 11.0065 15.2308 11.0065 12.335C11.0065 10.7757 10.3276 9.44323 9.18594 8.76539Z" fill="white"/>
<path d="M118.993 5.10426C118.333 5.10682 117.682 5.26571 117.088 5.56919C116.494 5.87267 115.972 6.31299 115.561 6.85761L115.331 7.16646L115.149 6.82071C114.556 5.68233 113.537 5.10426 112.121 5.10426C110.635 5.10426 109.638 5.97888 109.176 6.49819L108.872 6.84395L108.756 6.38887C108.587 5.7329 108.034 5.37348 107.197 5.37348H105.853L105.84 17.1536H108.892V11.9537C108.892 11.4972 108.946 11.0476 109.054 10.5761C109.345 9.31887 110.146 7.96729 111.492 8.10259C112.322 8.18732 112.729 8.86379 112.729 10.1703V17.1536H115.802V11.9537C115.802 11.3838 115.853 10.9574 115.975 10.531C116.221 9.33117 117.058 8.10122 118.357 8.10122C119.297 8.10122 119.645 8.66153 119.645 10.1703V15.4317C119.645 16.6206 120.147 17.1536 121.276 17.1536H122.712L122.714 9.63319C122.714 6.62802 121.46 5.10426 118.993 5.10426ZM91.2177 13.0634C91.2087 13.0757 89.896 14.5352 88.166 14.5352C86.5903 14.5352 84.9991 13.5157 84.9991 11.2403C84.9991 9.27514 86.2327 7.9017 88.0002 7.9017C88.573 7.9017 89.2261 8.11762 89.3285 8.4825L89.3427 8.544C89.408 8.79521 89.5501 9.01668 89.7469 9.17407C89.9437 9.33146 90.1842 9.41598 90.4312 9.41453L92.1028 9.41726V7.87573C92.1028 5.84222 89.6498 5.10426 88.0002 5.10426C84.4703 5.10426 81.9097 7.69534 81.9097 11.2649C81.9097 14.8318 84.4418 17.4201 87.9354 17.4201C90.9651 17.4201 92.6134 15.3196 92.629 15.2991L92.7171 15.1843L91.3927 12.8679L91.2177 13.0634Z" fill="white"/>
</g>
</g>
</g>
<defs>
<clipPath id="clip0_20_59">
<rect width="123" height="22" fill="white"/>
</clipPath>
</defs>
</svg>
