<svg width="18" height="18" viewBox="0 0 18 18" fill="none" xmlns="http://www.w3.org/2000/svg">
<path d="M12.15 2.70001C12.7212 2.69992 13.2711 2.91712 13.6881 3.30755C14.1051 3.69797 14.358 4.2324 14.3955 4.80241L14.4 4.95001V7.24501C14.8822 7.34364 15.3189 7.59763 15.643 7.96809C15.9671 8.33854 16.1609 8.80503 16.1946 9.29611L16.2 9.45001V14.85C16.2002 14.9625 16.1583 15.0709 16.0825 15.154C16.0068 15.2371 15.9026 15.2888 15.7906 15.299C15.6787 15.3092 15.5669 15.277 15.4774 15.2089C15.388 15.1408 15.3272 15.0417 15.3072 14.931L15.3 14.85V12.6H2.69999V14.85C2.70019 14.9625 2.65829 15.0709 2.58253 15.154C2.50677 15.2371 2.40264 15.2888 2.29065 15.299C2.17866 15.3092 2.06692 15.277 1.97744 15.2089C1.88796 15.1408 1.82722 15.0417 1.80719 14.931L1.79999 14.85V9.45001C1.79988 8.93132 1.97899 8.42852 2.307 8.02671C2.63501 7.62489 3.09177 7.34875 3.59999 7.24501V4.95001C3.5999 4.37877 3.8171 3.82887 4.20752 3.41187C4.59795 2.99487 5.13237 2.74199 5.70239 2.70451L5.84999 2.70001H12.15ZM13.95 8.10001H4.04999C3.71453 8.10001 3.39109 8.22489 3.14269 8.45034C2.89429 8.67578 2.73871 8.98563 2.70629 9.31951L2.69999 9.45001V11.7H15.3V9.45001C15.3 9.11456 15.1751 8.79112 14.9497 8.54271C14.7242 8.29431 14.4144 8.13874 14.0805 8.10631L13.95 8.10001ZM12.15 3.60001H5.84999C5.51439 3.60003 5.19084 3.72504 4.94241 3.95067C4.69399 4.1763 4.5385 4.48637 4.50629 4.82041L4.49999 4.95001V7.20001H5.39999V6.75001C5.39999 6.63066 5.4474 6.51621 5.53179 6.43181C5.61618 6.34742 5.73064 6.30001 5.84999 6.30001H8.09999C8.21934 6.30001 8.33379 6.34742 8.41819 6.43181C8.50258 6.51621 8.54999 6.63066 8.54999 6.75001V7.20001H9.44999V6.75001C9.44999 6.63066 9.4974 6.51621 9.58179 6.43181C9.66618 6.34742 9.78064 6.30001 9.89999 6.30001H12.15C12.2693 6.30001 12.3838 6.34742 12.4682 6.43181C12.5526 6.51621 12.6 6.63066 12.6 6.75001V7.20001H13.5V4.95001C13.5 4.61456 13.3751 4.29112 13.1497 4.04272C12.9242 3.79431 12.6144 3.63874 12.2805 3.60631L12.15 3.60001Z" fill="white"/>
</svg>
