<svg width="18" height="18" viewBox="0 0 18 18" fill="none" xmlns="http://www.w3.org/2000/svg">
<path d="M3.9375 10.6875V7.3125H5.34375V6.1875H1.40625V7.3125H2.8125V10.6875H3.9375ZM11.724 10.6875L12.5156 9.46962L13.3072 10.6875H14.649L13.1865 8.4375L14.649 6.1875H13.3072L12.5156 7.40538L11.724 6.1875H10.3822L11.8447 8.4375L10.3822 10.6875H11.724ZM15.4688 6.1875H16.5938V10.6875H15.4688V6.1875ZM1.40625 3.65625H16.5938V4.78125H1.40625V3.65625ZM1.40625 12.0938H16.5938V13.2188H1.40625V12.0938ZM8.4845 9.84375L8.76575 10.6875H9.95161L8.45156 6.1875H6.83606L5.44954 10.6875H6.62671L6.88686 9.84375H8.4845ZM7.65422 7.35279L8.10953 8.71875H7.23333L7.65422 7.35279Z" fill="white"/>
</svg>
